<svg id="Layer_1" data-name="Layer 1" xmlns="http://www.w3.org/2000/svg" xmlns:xlink="http://www.w3.org/1999/xlink" viewBox="0 0 1733.31 234.77"><defs><style>.cls-1{fill:url(#linear-gradient);}.cls-2{fill:url(#linear-gradient-2);}.cls-3{fill:url(#linear-gradient-3);}.cls-4{fill:url(#linear-gradient-4);}.cls-5{fill:url(#linear-gradient-5);}.cls-6{fill:url(#linear-gradient-6);}.cls-7{fill:url(#linear-gradient-7);}.cls-8{fill:url(#linear-gradient-8);}.cls-9{fill:#1764a3;stroke:#1764a3;stroke-miterlimit:10;stroke-width:7.69px;}</style><linearGradient id="linear-gradient" x1="156.85" y1="1023.76" x2="407.27" y2="1023.76" gradientUnits="userSpaceOnUse"><stop offset="0" stop-color="#1c71b7"/><stop offset="0.18" stop-color="#1a6bae"/><stop offset="0.5" stop-color="#1866a6"/><stop offset="1" stop-color="#1764a3"/></linearGradient><linearGradient id="linear-gradient-2" x1="113.77" y1="982.35" x2="370.95" y2="982.35" gradientUnits="userSpaceOnUse"><stop offset="0" stop-color="#1a5789"/><stop offset="0.21" stop-color="#194f7c"/><stop offset="0.58" stop-color="#173b59"/><stop offset="1" stop-color="#15202b"/></linearGradient><linearGradient id="linear-gradient-3" x1="529.08" y1="998.91" x2="692.33" y2="998.91" gradientUnits="userSpaceOnUse"><stop offset="0" stop-color="#1a5789"/><stop offset="0.57" stop-color="#185e96"/><stop offset="1" stop-color="#1764a3"/></linearGradient><linearGradient id="linear-gradient-4" x1="703.56" y1="1021.14" x2="843.9" y2="1021.14" xlink:href="#linear-gradient-3"/><linearGradient id="linear-gradient-5" x1="1189.9" y1="1021.14" x2="1330.25" y2="1021.14" xlink:href="#linear-gradient-3"/><linearGradient id="linear-gradient-6" x1="855.81" y1="1000.03" x2="981.11" y2="1000.03" xlink:href="#linear-gradient-3"/><linearGradient id="linear-gradient-7" x1="990.09" y1="1021.14" x2="1115.61" y2="1021.14" xlink:href="#linear-gradient-3"/><linearGradient id="linear-gradient-8" x1="1125.49" y1="1003.51" x2="1194.88" y2="1003.51" xlink:href="#linear-gradient-3"/></defs><path class="cls-1" d="M407.24,1027.39A173,173,0,0,0,404,996.85c-8.77-42.66-33.23-59.22-54.24-66.75a86,86,0,0,1,14.4,24.95c.68,1.79,1.29,3.64,1.86,5.51,23.82,79.58-45.88,91.78-45.88,91.78s11.41,15.67,14.52,24.19c2.2,6-3.58,5.86-7.13,5.23a50.11,50.11,0,0,0-5.72-.67c-20.2-1.13-42.91-12.5-42.91-12.5-22.71,8.17-81.15,9.39-122-11.8C170.27,1082.05,199,1088,199,1088s-11.92,15.31-15.3,23.72c-2.38,6,3.39,6,7,5.47a45.82,45.82,0,0,1,5.75-.5c20.22-.48,43.28-11.09,43.28-11.09C276.38,1120.19,409.48,1119.28,407.24,1027.39Z" transform="translate(-113.77 -882.64)"/><path class="cls-2" d="M366,960.56c-.57-1.87-1.18-3.72-1.86-5.51a86,86,0,0,0-14.4-24.95h0c-40.76-49.32-130-49.65-149.27-46.19C177.8,888,119.15,893.19,113.92,985a78.36,78.36,0,0,0,2.59,25.89c6,21.26,21.25,36,40.34,45.94,40.87,21.19,99.31,20,122,11.8,0,0,22.71,11.37,42.91,12.5a50.11,50.11,0,0,1,5.72.67c3.55.63,9.33.81,7.13-5.23-3.11-8.52-14.52-24.19-14.52-24.19S389.81,1040.14,366,960.56Z" transform="translate(-113.77 -882.64)"/><path class="cls-3" d="M646.41,929.29q21.68,8.76,33.8,26.28t12.12,42.89q0,25.59-12.57,43.34t-34.36,26.61q-21.78,8.86-49.18,8.87H529.08V920.54h67.14Q624.74,920.54,646.41,929.29Zm-9.77,127.21q18-7.29,28.3-22t10.55-36q.22-21.33-10.1-35.82T637,941.08Q618.91,934,596,934H544.8V1063.8H596Q618.68,1063.8,636.64,1056.5Z" transform="translate(-113.77 -882.64)"/><path class="cls-4" d="M819.76,1072.56q-16.5,7-38.06,7-26.26,0-45.36-14.59-16.83-12.81-18.86-36.61H703.56v-13h13.92A55.1,55.1,0,0,1,727.81,988a58.13,58.13,0,0,1,23.13-18.63,75.74,75.74,0,0,1,32.11-6.63q63.54,0,60.18,65.12l-109.36.45a44.52,44.52,0,0,0,4.94,15.16,35.68,35.68,0,0,0,10.11,11.79q12.35,10.34,33.23,10.33,18.87,0,32.56-6.29T833.13,1042l10.77,11.45Q836.26,1065.61,819.76,1072.56Zm-80.61-72.87a42.93,42.93,0,0,0-5.28,15.61l93.19-.23q-.9-19.08-12.12-28.74t-31.89-9.65q-19.53,0-33.23,11A37.46,37.46,0,0,0,739.15,999.69Z" transform="translate(-113.77 -882.64)"/><path class="cls-5" d="M1306.11,1072.56q-16.52,7-38.07,7-26.26,0-45.36-14.59-16.83-12.81-18.86-36.61H1189.9v-13h13.92A55.1,55.1,0,0,1,1214.15,988a58.13,58.13,0,0,1,23.13-18.63,75.74,75.74,0,0,1,32.11-6.63q63.54,0,60.18,65.12l-109.36.45a44.74,44.74,0,0,0,4.94,15.16,35.79,35.79,0,0,0,10.11,11.79q12.35,10.34,33.23,10.33,18.87,0,32.56-6.29t18.42-17.29l10.78,11.45Q1322.6,1065.61,1306.11,1072.56Zm-80.62-72.87a42.93,42.93,0,0,0-5.28,15.61l93.19-.23q-.9-19.08-12.12-28.74t-31.89-9.65q-19.53,0-33.23,11A37.46,37.46,0,0,0,1225.49,999.69Z" transform="translate(-113.77 -882.64)"/><path class="cls-6" d="M951.47,969.94a51.7,51.7,0,0,1,21.89,20.66q7.74,13.47,7.75,31.88,0,26.51-16.62,41.77t-45.81,15.27a69.22,69.22,0,0,1-27.28-5.28,52.61,52.61,0,0,1-20.33-14.7v17.74H855.81V920.54H871.3v62.65q7.19-9.44,19.76-14.93a67.57,67.57,0,0,1,27.4-5.51Q937.32,962.75,951.47,969.94Zm1.45,84.54q12.47-11.12,12.47-30.42,0-22.45-12.47-34.92t-34.46-12.46q-22,0-34,12.46t-12,35.81q0,18.65,12.35,29.65t33.69,11Q940.46,1065.6,952.92,1054.48Z" transform="translate(-113.77 -882.64)"/><path class="cls-7" d="M1115.61,1077.28h-15.49v-16.85a52.81,52.81,0,0,1-20.32,14,72,72,0,0,1-27.29,5q-18.85,0-33-7.3a52,52,0,0,1-21.78-20.54q-7.63-13.25-7.63-30.54,0-17.07,7.75-30.32a53.31,53.31,0,0,1,22-20.66q14.26-7.41,32.9-7.41a74.59,74.59,0,0,1,28.52,5.17q12.57,5.16,19.31,15V965h15Zm-27.84-88.82q-12.13-11.78-34.13-11.78-21.8,0-34.36,12.35t-12.58,33q0,19.53,12.58,31.43t34.36,11.9q13.92,0,24.47-5.27a38.09,38.09,0,0,0,16.17-14.71,41.36,41.36,0,0,0,5.62-21.56v-2.69Q1099.9,1000.25,1087.77,988.46Z" transform="translate(-113.77 -882.64)"/><path class="cls-8" d="M1159.4,978.25v60.18q0,13.92,4.72,19.76,4.26,5.83,15.49,5.84H1189v13.25h-12.35q-16.62-.45-24.48-9.21-8.31-9-8.3-29.42v-60.4l-18.42.22V965h18.42V939l15.49-9.21V965h35.48v13.25Z" transform="translate(-113.77 -882.64)"/><path class="cls-9" d="M1603.19,920.65l-68,156.74h-4.49l-62-128.45-67.59,128.45h-4l-61.53-156.74h17.74l47.83,126.42,66-126.65h4.27l60.85,126.43,53-126.2Z" transform="translate(-113.77 -882.64)"/><path class="cls-9" d="M1746.68,1077.39h-15.5v-16.84a52.79,52.79,0,0,1-20.32,14,71.91,71.91,0,0,1-27.28,5.05q-18.87,0-33-7.29a52.11,52.11,0,0,1-21.78-20.55q-7.63-13.24-7.64-30.54,0-17.07,7.75-30.32a53.31,53.31,0,0,1,22-20.65q14.25-7.41,32.89-7.41a74.55,74.55,0,0,1,28.52,5.16q12.57,5.18,19.31,15.05v-18h15Zm-27.85-88.81q-12.12-11.79-34.13-11.79-21.78,0-34.36,12.35t-12.57,33q0,19.53,12.57,31.44t34.36,11.9q13.92,0,24.48-5.28a38.21,38.21,0,0,0,16.17-14.71,41.36,41.36,0,0,0,5.61-21.56v-2.69Q1731,1000.37,1718.83,988.58Z" transform="translate(-113.77 -882.64)"/><path class="cls-9" d="M1816.06,969.15q12.59-6.74,22.68-6.73a28.07,28.07,0,0,1,4.49.45v15.49a18.6,18.6,0,0,0-4.94-.67q-8.74,0-18.3,5.95a54.74,54.74,0,0,0-15.94,15q-6.4,9.09-6.4,17.63l-.67,61.08h-15.72V965.11h15v19.54Q1803.49,975.89,1816.06,969.15Z" transform="translate(-113.77 -882.64)"/></svg>